<svg aria-hidden="true" style="position: absolute; width: 0; height: 0; overflow: hidden;" version="1.1" xmlns="http://www.w3.org/2000/svg" xmlns:xlink="http://www.w3.org/1999/xlink">
<defs>
<symbol id="icon-left" viewBox="0 0 32 32">
<path d="M20.911 9.714c0 0.143-0.072 0.304-0.178 0.41l-7.018 7.018 7.018 7.018c0.107 0.107 0.178 0.267 0.178 0.41s-0.072 0.304-0.178 0.41l-0.893 0.893c-0.107 0.107-0.267 0.178-0.41 0.178s-0.304-0.072-0.41-0.178l-8.321-8.321c-0.107-0.107-0.178-0.267-0.178-0.41s0.072-0.304 0.178-0.41l8.321-8.321c0.107-0.107 0.267-0.178 0.41-0.178s0.304 0.072 0.41 0.178l0.893 0.893c0.107 0.107 0.178 0.25 0.178 0.41z"></path>
</symbol>
<symbol id="icon-right" viewBox="0 0 32 32">
<path d="M21.482 17.143c0 0.143-0.072 0.304-0.178 0.41l-8.321 8.321c-0.107 0.107-0.267 0.178-0.41 0.178s-0.304-0.072-0.41-0.178l-0.893-0.893c-0.107-0.107-0.178-0.25-0.178-0.41 0-0.143 0.072-0.304 0.178-0.41l7.018-7.018-7.018-7.018c-0.107-0.107-0.178-0.267-0.178-0.41s0.072-0.304 0.178-0.41l0.893-0.893c0.107-0.107 0.267-0.178 0.41-0.178s0.304 0.072 0.41 0.178l8.321 8.321c0.107 0.107 0.178 0.267 0.178 0.41z"></path>
</symbol>
<symbol id="icon-cancel" viewBox="0 0 32 32">
<path d="M16 0c-8.837 0-16 7.163-16 16s7.163 16 16 16 16-7.163 16-16-7.163-16-16-16zM16 29c-7.18 0-13-5.82-13-13s5.82-13 13-13 13 5.82 13 13-5.82 13-13 13z"></path>
<path d="M21 8l-5 5-5-5-3 3 5 5-5 5 3 3 5-5 5 5 3-3-5-5 5-5z"></path>
</symbol>
<symbol id="icon-cart" viewBox="0 0 32 32">
<path d="M22.688 24q1.063 0 1.844 0.812t0.781 1.875-0.781 1.844-1.844 0.781-1.875-0.781-0.812-1.844 0.812-1.875 1.875-0.812zM1.312 2.688h4.375l1.251 2.625h19.751q0.563 0 0.937 0.407t0.375 0.969q0 0.063-0.188 0.625l-4.751 8.625q-0.751 1.375-2.312 1.375h-9.937l-1.188 2.188-0.063 0.188q0 0.312 0.312 0.312h15.437v2.688h-16q-1.063 0-1.844-0.812t-0.781-1.875q0-0.625 0.312-1.251l1.812-3.312-4.812-10.125h-2.688v-2.625zM9.312 24q1.063 0 1.875 0.812t0.812 1.875-0.812 1.844-1.875 0.781-1.844-0.781-0.781-1.844 0.781-1.875 1.844-0.812z"></path>
</symbol>
<symbol id="icon-check-circle" viewBox="0 0 32 32">
<path d="M28 14.773v1.227c-0.001 3.313-1.345 6.311-3.52 8.483s-5.173 3.512-8.487 3.509-6.312-1.345-8.483-3.52-3.512-5.172-3.511-8.487 1.345-6.311 3.52-8.483 5.173-3.512 8.487-3.511c1.773 0.001 3.448 0.385 4.865 1.033 0.669 0.307 1.461 0.011 1.767-0.659s0.011-1.461-0.659-1.767c-1.769-0.808-3.821-1.273-5.972-1.275-4.049-0.003-7.719 1.639-10.373 4.289s-4.299 6.32-4.301 10.369 1.639 7.719 4.289 10.373 6.319 4.3 10.368 4.301 7.719-1.639 10.373-4.289 4.3-6.319 4.303-10.369v-1.227c0-0.736-0.597-1.333-1.333-1.333s-1.333 0.597-1.333 1.333zM28.391 4.391l-12.391 12.403-3.057-3.056c-0.521-0.521-1.365-0.521-1.885 0s-0.521 1.365 0 1.885l4 4c0.521 0.521 1.365 0.52 1.887 0l13.333-13.347c0.52-0.521 0.52-1.365-0.001-1.885s-1.365-0.52-1.885 0.001z"></path>
</symbol>
<symbol id="icon-check-square" viewBox="0 0 32 32">
<path d="M26.286 16.607v5.679c0 2.839-2.304 5.143-5.143 5.143h-14.857c-2.839 0-5.143-2.304-5.143-5.143v-14.857c0-2.839 2.304-5.143 5.143-5.143h14.857c0.714 0 1.429 0.143 2.089 0.447 0.161 0.072 0.286 0.232 0.321 0.41 0.035 0.197-0.018 0.375-0.161 0.518l-0.875 0.875c-0.107 0.107-0.267 0.178-0.41 0.178-0.054 0-0.107-0.018-0.161-0.035-0.267-0.072-0.536-0.107-0.803-0.107h-14.857c-1.571 0-2.857 1.286-2.857 2.857v14.857c0 1.571 1.286 2.857 2.857 2.857h14.857c1.571 0 2.857-1.286 2.857-2.857v-4.536c0-0.143 0.054-0.286 0.161-0.393l1.143-1.143c0.125-0.125 0.267-0.178 0.41-0.178 0.072 0 0.143 0.018 0.214 0.054 0.214 0.089 0.358 0.286 0.358 0.518zM30.41 7.875l-14.536 14.536c-0.571 0.571-1.464 0.571-2.035 0l-7.679-7.679c-0.571-0.571-0.571-1.464 0-2.035l1.965-1.965c0.571-0.571 1.464-0.571 2.035 0l4.696 4.696 11.553-11.553c0.571-0.571 1.464-0.571 2.035 0l1.965 1.965c0.571 0.571 0.571 1.464 0 2.035z"></path>
</symbol>
<symbol id="icon-clear" viewBox="0 0 32 32">
<path d="M25.312 8.563l-7.437 7.437 7.437 7.437-1.875 1.875-7.437-7.437-7.437 7.437-1.875-1.875 7.437-7.437-7.437-7.437 1.875-1.875 7.437 7.437 7.437-7.437z"></path>
</symbol>
<symbol id="icon-logo" viewBox="0 0 32 32">
<path d="M25.872 9.724c-0.029-0.029-0.061-0.054-0.095-0.078s-0.070-0.042-0.108-0.057c-0.038-0.016-0.078-0.027-0.117-0.036-0.203-0.041-0.419 0.026-0.564 0.171-0.116 0.117-0.183 0.277-0.183 0.442 0 0.041 0.004 0.082 0.012 0.123s0.020 0.079 0.036 0.117 0.035 0.074 0.058 0.108c0.023 0.034 0.049 0.066 0.078 0.095 0.116 0.116 0.277 0.183 0.442 0.183 0.041 0 0.082-0.004 0.122-0.012 0.039-0.008 0.079-0.020 0.117-0.036s0.074-0.035 0.108-0.057c0.034-0.023 0.066-0.049 0.095-0.078s0.055-0.061 0.078-0.095c0.023-0.034 0.042-0.071 0.058-0.108s0.027-0.077 0.036-0.117c0.008-0.041 0.012-0.081 0.012-0.123 0-0.164-0.066-0.326-0.183-0.442z"></path>
<path d="M7.206 24.117c-0.008-0.040-0.020-0.079-0.036-0.117s-0.034-0.074-0.057-0.108c-0.023-0.034-0.049-0.066-0.078-0.095s-0.061-0.055-0.095-0.078c-0.034-0.023-0.070-0.042-0.107-0.058s-0.077-0.027-0.117-0.036c-0.081-0.016-0.163-0.016-0.244 0-0.040 0.008-0.079 0.020-0.117 0.036s-0.074 0.035-0.108 0.058c-0.034 0.023-0.066 0.049-0.095 0.078s-0.055 0.061-0.077 0.095c-0.022 0.034-0.042 0.071-0.058 0.108s-0.028 0.077-0.036 0.117c-0.008 0.041-0.013 0.081-0.013 0.122s0.004 0.081 0.013 0.122c0.008 0.040 0.020 0.079 0.036 0.117s0.035 0.074 0.058 0.108c0.022 0.034 0.049 0.066 0.077 0.095s0.061 0.055 0.095 0.078c0.034 0.023 0.070 0.042 0.108 0.058s0.077 0.027 0.117 0.036 0.081 0.012 0.122 0.012c0.041 0 0.082-0.004 0.122-0.012s0.079-0.020 0.117-0.036c0.037-0.016 0.074-0.035 0.107-0.058s0.066-0.049 0.095-0.078c0.029-0.029 0.055-0.061 0.078-0.095s0.041-0.071 0.057-0.108 0.028-0.077 0.036-0.117c0.008-0.041 0.013-0.081 0.013-0.122s-0.004-0.082-0.013-0.122z"></path>
<path d="M32 13.92c0-0.888-0.577-1.645-1.375-1.914-0.102-4.635-3.904-8.374-8.562-8.374h-12.125c-4.659 0-8.46 3.739-8.562 8.374-0.799 0.269-1.375 1.025-1.375 1.914 0 0.339 0.087 0.664 0.24 0.95-0.033 0.173-0.050 0.349-0.050 0.527v0.044c0 0.879 0.407 1.664 1.043 2.177-0.636 0.517-1.043 1.306-1.043 2.188 0 0.945 0.467 1.782 1.183 2.294v1.667c0 2.537 2.064 4.601 4.601 4.601h20.052c2.537 0 4.601-2.064 4.601-4.601v-1.667c0.715-0.512 1.183-1.349 1.183-2.294 0-0.866-0.397-1.649-1.023-2.169 0.624-0.513 1.023-1.291 1.023-2.16v-0.044c0-0.187-0.018-0.371-0.055-0.553 0.157-0.288 0.246-0.617 0.246-0.96zM2.752 10.827h20.153c0.345 0 0.625-0.28 0.625-0.625s-0.28-0.625-0.625-0.625h-19.796c1.056-2.743 3.719-4.694 6.829-4.694h12.125c3.934 0 7.152 3.122 7.308 7.018h-26.742c0.015-0.366 0.056-0.724 0.123-1.074zM1.441 19.806c0-0.865 0.704-1.568 1.568-1.568h7.331l3.459 3.137h-10.79c-0.865 0-1.568-0.703-1.568-1.568zM1.502 15.872c0.026 0.007 0.053 0.013 0.080 0.019 0.464 0.102 0.917 0.5 1.398 0.921 0.065 0.057 0.132 0.116 0.2 0.175h-0.193c-0.703-0-1.298-0.472-1.485-1.116zM20.797 21.481l3.577-3.244 3.119 0.036-5.117 4.64-1.579-1.432zM21.289 23.614h-2.843l1.092-0.99h0.66l1.092 0.99zM22.513 18.238l-5.156 4.676-5.156-4.676h10.312zM18.793 16.988c0.053-0.053 0.105-0.105 0.156-0.156 0.596-0.599 1.066-1.072 2.056-1.072s1.46 0.473 2.056 1.073c0.051 0.051 0.102 0.103 0.156 0.156h-4.422zM8.785 16.988c0.053-0.053 0.105-0.105 0.156-0.156 0.596-0.599 1.066-1.073 2.056-1.073s1.46 0.473 2.056 1.073c0.051 0.051 0.103 0.103 0.156 0.156h-4.422zM26.026 27.117h-20.052c-1.848 0-3.35-1.503-3.35-3.351v-1.142h12.555l1.092 0.99h-7.151c-0.345 0-0.625 0.28-0.625 0.625s0.28 0.625 0.625 0.625h20.073c-0.456 1.31-1.703 2.253-3.166 2.253zM29.377 23.614h-5.912l1.092-0.99h4.821v0.99zM28.991 21.375h-3.057l3.414-3.096c0.696 0.163 1.211 0.792 1.211 1.527 0 0.865-0.704 1.568-1.568 1.568zM28.82 16.988c0.005-0.005 0.011-0.009 0.016-0.014 0.002-0.002 0.004-0.004 0.006-0.005 0.007-0.006 0.014-0.012 0.021-0.019 0.053-0.046 0.105-0.092 0.156-0.137 0.257-0.225 0.506-0.443 0.753-0.614 0.215-0.148 0.429-0.26 0.645-0.308 0.008-0.002 0.015-0.003 0.022-0.005 0.001-0 0.002-0 0.003-0.001 0.007-0.002 0.013-0.003 0.020-0.005 0.001-0 0.003-0.001 0.004-0.001 0.006-0.001 0.012-0.003 0.017-0.004 0.003-0.001 0.006-0.002 0.009-0.002 0.004-0.001 0.008-0.002 0.012-0.003 0.001-0 0.002-0 0.003-0.001-0.152 0.58-0.633 1.028-1.231 1.131-0.041-0.008-0.083-0.013-0.126-0.013h-0.332zM30.15 14.671c-0.097 0.021-0.192 0.048-0.284 0.080-0.632 0.218-1.145 0.663-1.643 1.099-0.009 0.008-0.018 0.016-0.027 0.024-0.574 0.503-1.12 0.983-1.815 1.115h-0.822c-0.703-0.121-1.115-0.535-1.614-1.037-0.638-0.642-1.433-1.441-2.942-1.441s-2.304 0.799-2.942 1.441c-0.5 0.503-0.911 0.916-1.614 1.037h-0.895c-0.703-0.121-1.115-0.535-1.614-1.037-0.638-0.642-1.433-1.441-2.942-1.441s-2.304 0.799-2.942 1.441c-0.499 0.502-0.911 0.916-1.614 1.037h-0.442c-0.883 0-1.52-0.559-2.195-1.15-0.578-0.507-1.176-1.031-1.953-1.203-0.174-0.038-0.33-0.137-0.439-0.278-0.022-0.028-0.046-0.055-0.072-0.078-0.057-0.108-0.089-0.23-0.089-0.358-0-0.424 0.345-0.769 0.769-0.769h27.962c0.424 0 0.769 0.345 0.769 0.769 0 0.358-0.252 0.674-0.6 0.75z"></path>
</symbol>
<symbol id="icon-search" viewBox="0 0 32 32">
<path d="M31.008 27.231l-7.58-6.447c-0.784-0.705-1.622-1.029-2.299-0.998 1.789-2.096 2.87-4.815 2.87-7.787 0-6.627-5.373-12-12-12s-12 5.373-12 12 5.373 12 12 12c2.972 0 5.691-1.081 7.787-2.87-0.031 0.677 0.293 1.515 0.998 2.299l6.447 7.58c1.104 1.226 2.907 1.33 4.007 0.23s0.997-2.903-0.23-4.007zM12 20c-4.418 0-8-3.582-8-8s3.582-8 8-8 8 3.582 8 8-3.582 8-8 8z"></path>
</symbol>
<symbol id="icon-subtract" viewBox="0 0 24 24">
<path d="M5 13h14c0.552 0 1-0.448 1-1s-0.448-1-1-1h-14c-0.552 0-1 0.448-1 1s0.448 1 1 1z"></path>
</symbol>
<symbol id="icon-add" viewBox="0 0 24 24">
<path d="M18.984 12.984h-6v6h-1.969v-6h-6v-1.969h6v-6h1.969v6h6v1.969z"></path>
</symbol>
<symbol id="icon-cancel" viewBox="0 0 24 24">
<path d="M12 0c-6.628 0-12 5.372-12 12s5.372 12 12 12 12-5.372 12-12-5.372-12-12-12zM12 21.75c-5.385 0-9.75-4.365-9.75-9.75s4.365-9.75 9.75-9.75 9.75 4.365 9.75 9.75-4.365 9.75-9.75 9.75z"></path>
<path d="M15.75 6l-3.75 3.75-3.75-3.75-2.25 2.25 3.75 3.75-3.75 3.75 2.25 2.25 3.75-3.75 3.75 3.75 2.25-2.25-3.75-3.75 3.75-3.75z"></path>
</symbol>
<symbol id="icon-cart" viewBox="0 0 24 24">
<path d="M17.016 18q0.797 0 1.383 0.609t0.586 1.406-0.586 1.383-1.383 0.586-1.406-0.586-0.609-1.383 0.609-1.406 1.406-0.609zM0.984 2.016h3.281l0.938 1.969h14.813q0.422 0 0.703 0.305t0.281 0.727q0 0.047-0.141 0.469l-3.563 6.469q-0.563 1.031-1.734 1.031h-7.453l-0.891 1.641-0.047 0.141q0 0.234 0.234 0.234h11.578v2.016h-12q-0.797 0-1.383-0.609t-0.586-1.406q0-0.469 0.234-0.938l1.359-2.484-3.609-7.594h-2.016v-1.969zM6.984 18q0.797 0 1.406 0.609t0.609 1.406-0.609 1.383-1.406 0.586-1.383-0.586-0.586-1.383 0.586-1.406 1.383-0.609z"></path>
</symbol>
<symbol id="icon-check-circle" viewBox="0 0 24 24">
<path d="M21 11.080v0.92c-0.001 2.485-1.009 4.733-2.64 6.362s-3.88 2.634-6.365 2.632-4.734-1.009-6.362-2.64-2.634-3.879-2.633-6.365 1.009-4.733 2.64-6.362 3.88-2.634 6.365-2.633c1.33 0.001 2.586 0.289 3.649 0.775 0.502 0.23 1.096 0.008 1.325-0.494s0.008-1.096-0.494-1.325c-1.327-0.606-2.866-0.955-4.479-0.956-3.037-0.002-5.789 1.229-7.78 3.217s-3.224 4.74-3.226 7.777 1.229 5.789 3.217 7.78 4.739 3.225 7.776 3.226 5.789-1.229 7.78-3.217 3.225-4.739 3.227-7.777v-0.92c0-0.552-0.448-1-1-1s-1 0.448-1 1zM21.293 3.293l-9.293 9.302-2.293-2.292c-0.391-0.391-1.024-0.391-1.414 0s-0.391 1.024 0 1.414l3 3c0.391 0.391 1.024 0.39 1.415 0l10-10.010c0.39-0.391 0.39-1.024-0.001-1.414s-1.024-0.39-1.414 0.001z"></path>
</symbol>
<symbol id="icon-check-square" viewBox="0 0 24 24">
<path d="M19.714 12.455v4.259c0 2.129-1.728 3.857-3.857 3.857h-11.143c-2.129 0-3.857-1.728-3.857-3.857v-11.143c0-2.129 1.728-3.857 3.857-3.857h11.143c0.536 0 1.071 0.107 1.567 0.335 0.121 0.054 0.214 0.174 0.241 0.308 0.027 0.147-0.014 0.281-0.121 0.388l-0.657 0.657c-0.081 0.081-0.201 0.134-0.308 0.134-0.040 0-0.081-0.014-0.121-0.027-0.201-0.054-0.402-0.081-0.603-0.081h-11.143c-1.179 0-2.143 0.964-2.143 2.143v11.143c0 1.179 0.964 2.143 2.143 2.143h11.143c1.179 0 2.143-0.964 2.143-2.143v-3.402c0-0.107 0.040-0.214 0.121-0.295l0.857-0.857c0.093-0.093 0.201-0.134 0.308-0.134 0.054 0 0.107 0.014 0.16 0.040 0.16 0.067 0.268 0.214 0.268 0.388zM22.808 5.907l-10.902 10.902c-0.429 0.429-1.098 0.429-1.527 0l-5.759-5.759c-0.429-0.429-0.429-1.098 0-1.527l1.473-1.473c0.429-0.429 1.098-0.429 1.527 0l3.522 3.522 8.665-8.665c0.429-0.429 1.098-0.429 1.527 0l1.473 1.473c0.429 0.429 0.429 1.098 0 1.527z"></path>
</symbol>
<symbol id="icon-clear" viewBox="0 0 24 24">
<path d="M18.984 6.422l-5.578 5.578 5.578 5.578-1.406 1.406-5.578-5.578-5.578 5.578-1.406-1.406 5.578-5.578-5.578-5.578 1.406-1.406 5.578 5.578 5.578-5.578z"></path>
</symbol>
<symbol id="icon-logo" viewBox="0 0 24 24">
<path d="M19.404 7.293c-0.022-0.022-0.045-0.041-0.071-0.058s-0.052-0.031-0.081-0.043c-0.029-0.012-0.058-0.021-0.088-0.027-0.152-0.031-0.314 0.019-0.423 0.128-0.087 0.088-0.137 0.208-0.137 0.331 0 0.031 0.003 0.061 0.009 0.092s0.015 0.060 0.027 0.088 0.026 0.055 0.043 0.081c0.017 0.025 0.037 0.049 0.058 0.071 0.087 0.087 0.208 0.137 0.331 0.137 0.030 0 0.061-0.003 0.092-0.009s0.059-0.015 0.088-0.027c0.028-0.012 0.055-0.026 0.081-0.043s0.050-0.037 0.071-0.058c0.022-0.022 0.041-0.046 0.059-0.071s0.031-0.053 0.043-0.081 0.021-0.058 0.027-0.088c0.006-0.030 0.009-0.061 0.009-0.092 0-0.123-0.050-0.244-0.137-0.331z"></path>
<path d="M5.404 18.088c-0.006-0.030-0.015-0.060-0.027-0.088s-0.026-0.055-0.043-0.081c-0.017-0.025-0.037-0.050-0.059-0.071s-0.045-0.041-0.071-0.058c-0.025-0.017-0.053-0.031-0.081-0.043s-0.058-0.021-0.088-0.027c-0.060-0.012-0.122-0.012-0.183 0-0.030 0.006-0.060 0.015-0.088 0.027s-0.056 0.026-0.081 0.043c-0.026 0.017-0.050 0.037-0.071 0.058s-0.041 0.046-0.058 0.071c-0.017 0.026-0.031 0.053-0.043 0.081s-0.021 0.058-0.027 0.088c-0.006 0.031-0.009 0.061-0.009 0.092s0.003 0.061 0.009 0.091c0.006 0.030 0.015 0.060 0.027 0.088s0.026 0.055 0.043 0.081c0.017 0.025 0.037 0.050 0.058 0.071s0.045 0.041 0.071 0.058c0.025 0.017 0.053 0.031 0.081 0.043s0.058 0.021 0.088 0.027 0.061 0.009 0.091 0.009c0.030 0 0.061-0.003 0.091-0.009s0.060-0.015 0.088-0.027c0.028-0.012 0.055-0.026 0.081-0.043s0.050-0.037 0.071-0.058c0.022-0.022 0.041-0.046 0.059-0.071s0.031-0.053 0.043-0.081 0.021-0.058 0.027-0.088c0.006-0.030 0.009-0.061 0.009-0.091s-0.003-0.061-0.009-0.092z"></path>
<path d="M24 10.44c0-0.666-0.433-1.234-1.032-1.435-0.076-3.476-2.928-6.28-6.422-6.28h-9.094c-3.494 0-6.345 2.804-6.422 6.28-0.599 0.202-1.032 0.769-1.032 1.435 0 0.254 0.065 0.498 0.18 0.713-0.025 0.13-0.037 0.262-0.037 0.395v0.033c0 0.659 0.306 1.248 0.782 1.633-0.477 0.388-0.782 0.979-0.782 1.641 0 0.708 0.35 1.337 0.887 1.72v1.25c0 1.903 1.548 3.45 3.45 3.45h15.039c1.903 0 3.45-1.548 3.45-3.45v-1.25c0.537-0.384 0.887-1.012 0.887-1.72 0-0.649-0.298-1.237-0.767-1.627 0.468-0.385 0.767-0.968 0.767-1.62v-0.033c0-0.14-0.014-0.279-0.041-0.415 0.118-0.216 0.184-0.463 0.184-0.72zM2.064 8.12h15.114c0.259 0 0.469-0.21 0.469-0.469s-0.21-0.469-0.469-0.469h-14.847c0.792-2.057 2.789-3.521 5.122-3.521h9.094c2.95 0 5.364 2.342 5.481 5.264h-20.056c0.011-0.274 0.042-0.543 0.092-0.806zM1.081 14.855c0-0.649 0.528-1.176 1.176-1.176h5.498l2.594 2.353h-8.093c-0.649 0-1.176-0.528-1.176-1.176zM1.126 11.904c0.020 0.005 0.040 0.010 0.060 0.014 0.348 0.077 0.688 0.375 1.048 0.691 0.049 0.043 0.099 0.087 0.15 0.131h-0.144c-0.527-0-0.974-0.354-1.114-0.837zM15.598 16.111l2.683-2.433 2.339 0.027-3.838 3.48-1.184-1.074zM15.966 17.711h-2.133l0.819-0.742h0.495l0.819 0.742zM16.885 13.678l-3.867 3.507-3.867-3.507h7.734zM14.095 12.741c0.040-0.039 0.079-0.079 0.117-0.117 0.447-0.449 0.8-0.804 1.542-0.804s1.095 0.355 1.542 0.804c0.038 0.038 0.077 0.077 0.117 0.117h-3.317zM6.589 12.741c0.040-0.039 0.079-0.079 0.117-0.117 0.447-0.449 0.8-0.804 1.542-0.804s1.095 0.355 1.542 0.804c0.038 0.038 0.077 0.077 0.117 0.117h-3.317zM19.52 20.338h-15.039c-1.386 0-2.513-1.127-2.513-2.513v-0.857h9.416l0.819 0.742h-5.363c-0.259 0-0.469 0.21-0.469 0.469s0.21 0.469 0.469 0.469h15.055c-0.342 0.982-1.277 1.69-2.374 1.69zM22.033 17.711h-4.434l0.819-0.742h3.616v0.742zM21.743 16.031h-2.292l2.561-2.322c0.522 0.122 0.908 0.594 0.908 1.146 0 0.649-0.528 1.176-1.176 1.176zM21.615 12.741c0.004-0.004 0.008-0.007 0.012-0.011 0.002-0.001 0.003-0.003 0.005-0.004 0.005-0.005 0.011-0.009 0.016-0.014 0.040-0.035 0.079-0.069 0.117-0.103 0.192-0.169 0.379-0.333 0.564-0.46 0.162-0.111 0.322-0.195 0.484-0.231 0.006-0.001 0.011-0.003 0.017-0.004 0.001-0 0.001-0 0.002-0 0.005-0.001 0.010-0.002 0.015-0.004 0.001-0 0.002-0.001 0.003-0.001 0.004-0.001 0.009-0.002 0.013-0.003 0.002-0.001 0.004-0.001 0.007-0.002s0.006-0.002 0.009-0.002c0.001-0 0.002-0 0.002-0.001-0.114 0.435-0.475 0.771-0.923 0.849-0.031-0.006-0.062-0.010-0.095-0.010h-0.249zM22.612 11.003c-0.073 0.016-0.144 0.036-0.213 0.060-0.474 0.164-0.859 0.497-1.232 0.824-0.007 0.006-0.014 0.012-0.020 0.018-0.43 0.377-0.84 0.737-1.361 0.836h-0.616c-0.527-0.090-0.836-0.401-1.21-0.778-0.479-0.482-1.075-1.081-2.207-1.081s-1.728 0.599-2.207 1.081c-0.375 0.377-0.683 0.687-1.211 0.778h-0.672c-0.527-0.090-0.836-0.401-1.211-0.778-0.479-0.482-1.075-1.081-2.207-1.081s-1.728 0.599-2.207 1.081c-0.375 0.377-0.683 0.687-1.21 0.778h-0.331c-0.663 0-1.14-0.419-1.646-0.863-0.433-0.38-0.882-0.773-1.465-0.902-0.13-0.029-0.247-0.103-0.329-0.209-0.016-0.021-0.035-0.041-0.054-0.059-0.043-0.081-0.067-0.173-0.067-0.268-0-0.318 0.259-0.577 0.577-0.577h20.971c0.318 0 0.577 0.259 0.577 0.577 0 0.269-0.189 0.505-0.45 0.563z"></path>
</symbol>
<symbol id="icon-search" viewBox="0 0 24 24">
<path d="M23.256 20.423l-5.685-4.835c-0.588-0.529-1.216-0.772-1.724-0.748 1.342-1.572 2.153-3.611 2.153-5.84 0-4.97-4.030-9-9-9s-9 4.030-9 9 4.030 9 9 9c2.229 0 4.268-0.811 5.84-2.153-0.023 0.508 0.22 1.136 0.749 1.724l4.835 5.685c0.828 0.919 2.18 0.998 3.005 0.173s0.748-2.177-0.172-3.005zM9 15c-3.314 0-6-2.687-6-6s2.686-6 6-6 6 2.686 6 6-2.687 6-6 6z"></path>
</symbol>
<symbol id="icon-down" viewBox="0 0 18 28">
<path d="M16.797 11.5c0 0.125-0.063 0.266-0.156 0.359l-7.281 7.281c-0.094 0.094-0.234 0.156-0.359 0.156s-0.266-0.063-0.359-0.156l-7.281-7.281c-0.094-0.094-0.156-0.234-0.156-0.359s0.063-0.266 0.156-0.359l0.781-0.781c0.094-0.094 0.219-0.156 0.359-0.156 0.125 0 0.266 0.063 0.359 0.156l6.141 6.141 6.141-6.141c0.094-0.094 0.234-0.156 0.359-0.156s0.266 0.063 0.359 0.156l0.781 0.781c0.094 0.094 0.156 0.234 0.156 0.359z"></path>
</symbol>
<symbol id="icon-up" viewBox="0 0 18 28">
<path d="M16.797 18.5c0 0.125-0.063 0.266-0.156 0.359l-0.781 0.781c-0.094 0.094-0.219 0.156-0.359 0.156-0.125 0-0.266-0.063-0.359-0.156l-6.141-6.141-6.141 6.141c-0.094 0.094-0.234 0.156-0.359 0.156s-0.266-0.063-0.359-0.156l-0.781-0.781c-0.094-0.094-0.156-0.234-0.156-0.359s0.063-0.266 0.156-0.359l7.281-7.281c0.094-0.094 0.234-0.156 0.359-0.156s0.266 0.063 0.359 0.156l7.281 7.281c0.094 0.094 0.156 0.234 0.156 0.359z"></path>
</symbol>
</defs>
</svg>
